<mxfile host="app.diagrams.net" modified="2024-03-05T15:09:38.833Z" agent="Mozilla/5.0 (X11; Linux x86_64; rv:109.0) Gecko/20100101 Firefox/115.0" etag="ucVOHrHRhjvX-bN6fKDV" version="24.0.1" type="github">
  <diagram id="C5RBs43oDa-KdzZeNtuy" name="Page-1">
    <mxGraphModel dx="1144" dy="643" grid="1" gridSize="10" guides="1" tooltips="1" connect="1" arrows="1" fold="1" page="1" pageScale="1" pageWidth="827" pageHeight="1169" math="0" shadow="0">
      <root>
        <mxCell id="WIyWlLk6GJQsqaUBKTNV-0" />
        <mxCell id="WIyWlLk6GJQsqaUBKTNV-1" parent="WIyWlLk6GJQsqaUBKTNV-0" />
        <mxCell id="WIyWlLk6GJQsqaUBKTNV-7" value="&lt;div&gt;&lt;br&gt;&lt;/div&gt;&lt;div&gt;&lt;br&gt;&lt;/div&gt;&lt;div&gt;&lt;br&gt;&lt;/div&gt;&lt;div&gt;&lt;br&gt;&lt;/div&gt;&lt;div&gt;&lt;br&gt;&lt;/div&gt;&lt;div style=&quot;font-size: 8px;&quot;&gt;&amp;nbsp; Zeynep BASAR&amp;nbsp; &amp;amp; Ismet SORGEL&lt;br&gt;&amp;nbsp;&amp;nbsp;&amp;nbsp;&amp;nbsp;&amp;nbsp;&amp;nbsp;&amp;nbsp;&amp;nbsp;&amp;nbsp;&amp;nbsp;&amp;nbsp;&amp;nbsp;&amp;nbsp;&amp;nbsp;&amp;nbsp;&amp;nbsp;&amp;nbsp;&amp;nbsp;&amp;nbsp;&amp;nbsp;&amp;nbsp;&amp;nbsp;&amp;nbsp;&amp;nbsp;&amp;nbsp;&amp;nbsp;&amp;nbsp;&amp;nbsp;&amp;nbsp;&amp;nbsp;&amp;nbsp;&amp;nbsp; décédé janvier 2015&lt;br&gt;&lt;/div&gt;" style="rounded=1;whiteSpace=wrap;html=1;fontSize=12;glass=0;strokeWidth=1;shadow=0;" parent="WIyWlLk6GJQsqaUBKTNV-1" vertex="1">
          <mxGeometry x="320" y="30" width="200" height="100" as="geometry" />
        </mxCell>
        <mxCell id="0sbduJu9M4anClZtrmmK-9" value="" style="endArrow=classic;html=1;rounded=0;entryX=0.5;entryY=0;entryDx=0;entryDy=0;" parent="WIyWlLk6GJQsqaUBKTNV-1" target="0sbduJu9M4anClZtrmmK-17" edge="1">
          <mxGeometry width="50" height="50" relative="1" as="geometry">
            <mxPoint x="420" y="130" as="sourcePoint" />
            <mxPoint x="420" y="200" as="targetPoint" />
          </mxGeometry>
        </mxCell>
        <mxCell id="0sbduJu9M4anClZtrmmK-12" value="&lt;font color=&quot;#ef2929&quot;&gt;Güler SORGEL&lt;/font&gt; &amp;amp; &lt;font color=&quot;#3465a4&quot;&gt;Bilal TURAN&lt;/font&gt;" style="rounded=1;whiteSpace=wrap;html=1;fontSize=8;glass=0;strokeWidth=1;shadow=0;" parent="WIyWlLk6GJQsqaUBKTNV-1" vertex="1">
          <mxGeometry x="120" y="220" width="80" height="50" as="geometry" />
        </mxCell>
        <mxCell id="0sbduJu9M4anClZtrmmK-13" value="" style="endArrow=none;html=1;rounded=0;entryX=0.5;entryY=1;entryDx=0;entryDy=0;" parent="WIyWlLk6GJQsqaUBKTNV-1" target="WIyWlLk6GJQsqaUBKTNV-7" edge="1">
          <mxGeometry width="50" height="50" relative="1" as="geometry">
            <mxPoint x="160" y="200" as="sourcePoint" />
            <mxPoint x="440" y="260" as="targetPoint" />
          </mxGeometry>
        </mxCell>
        <mxCell id="0sbduJu9M4anClZtrmmK-14" value="" style="endArrow=classic;html=1;rounded=0;entryX=0.5;entryY=0;entryDx=0;entryDy=0;" parent="WIyWlLk6GJQsqaUBKTNV-1" target="0sbduJu9M4anClZtrmmK-12" edge="1">
          <mxGeometry width="50" height="50" relative="1" as="geometry">
            <mxPoint x="160" y="200" as="sourcePoint" />
            <mxPoint x="440" y="260" as="targetPoint" />
          </mxGeometry>
        </mxCell>
        <mxCell id="0sbduJu9M4anClZtrmmK-15" value="&lt;font color=&quot;#3465a4&quot;&gt;Dogan SORGEL&lt;/font&gt; &amp;amp; &lt;font color=&quot;#ef2929&quot;&gt;Guluzar&lt;/font&gt;" style="rounded=1;whiteSpace=wrap;html=1;fontSize=8;glass=0;strokeWidth=1;shadow=0;" parent="WIyWlLk6GJQsqaUBKTNV-1" vertex="1">
          <mxGeometry x="260" y="220" width="80" height="50" as="geometry" />
        </mxCell>
        <mxCell id="0sbduJu9M4anClZtrmmK-16" value="" style="endArrow=none;html=1;rounded=0;" parent="WIyWlLk6GJQsqaUBKTNV-1" edge="1">
          <mxGeometry width="50" height="50" relative="1" as="geometry">
            <mxPoint x="300" y="200" as="sourcePoint" />
            <mxPoint x="420" y="130" as="targetPoint" />
          </mxGeometry>
        </mxCell>
        <mxCell id="0sbduJu9M4anClZtrmmK-17" value="&lt;font color=&quot;#ef2929&quot;&gt;Nuran SORGEL&lt;/font&gt; &amp;amp; &lt;font color=&quot;#3465a4&quot;&gt;Cihan SIMSEK&lt;/font&gt;" style="rounded=1;whiteSpace=wrap;html=1;fontSize=8;glass=0;strokeWidth=1;shadow=0;" parent="WIyWlLk6GJQsqaUBKTNV-1" vertex="1">
          <mxGeometry x="380" y="220" width="80" height="50" as="geometry" />
        </mxCell>
        <mxCell id="0sbduJu9M4anClZtrmmK-18" value="" style="endArrow=classic;html=1;rounded=0;entryX=0.5;entryY=0;entryDx=0;entryDy=0;" parent="WIyWlLk6GJQsqaUBKTNV-1" edge="1">
          <mxGeometry width="50" height="50" relative="1" as="geometry">
            <mxPoint x="299.85" y="200" as="sourcePoint" />
            <mxPoint x="299.85" y="220" as="targetPoint" />
          </mxGeometry>
        </mxCell>
        <mxCell id="0sbduJu9M4anClZtrmmK-19" value="" style="endArrow=classic;html=1;rounded=0;entryX=0.5;entryY=0;entryDx=0;entryDy=0;" parent="WIyWlLk6GJQsqaUBKTNV-1" edge="1">
          <mxGeometry width="50" height="50" relative="1" as="geometry">
            <mxPoint x="540" y="200" as="sourcePoint" />
            <mxPoint x="540" y="220" as="targetPoint" />
          </mxGeometry>
        </mxCell>
        <mxCell id="0sbduJu9M4anClZtrmmK-20" value="" style="endArrow=classic;html=1;rounded=0;entryX=0.5;entryY=0;entryDx=0;entryDy=0;" parent="WIyWlLk6GJQsqaUBKTNV-1" edge="1">
          <mxGeometry width="50" height="50" relative="1" as="geometry">
            <mxPoint x="680" y="200" as="sourcePoint" />
            <mxPoint x="680" y="220" as="targetPoint" />
          </mxGeometry>
        </mxCell>
        <mxCell id="0sbduJu9M4anClZtrmmK-21" value="&lt;font color=&quot;#ef2929&quot;&gt;Gulnisha SORGEL&lt;/font&gt; &amp;amp; &lt;font color=&quot;#3465a4&quot;&gt;Ayhan SIMSEK&lt;/font&gt;" style="rounded=1;whiteSpace=wrap;html=1;fontSize=8;glass=0;strokeWidth=1;shadow=0;" parent="WIyWlLk6GJQsqaUBKTNV-1" vertex="1">
          <mxGeometry x="500" y="220" width="80" height="50" as="geometry" />
        </mxCell>
        <mxCell id="0sbduJu9M4anClZtrmmK-22" value="&lt;font color=&quot;#ef2929&quot;&gt;Öznur SORGEL&lt;/font&gt; &amp;amp; &lt;font color=&quot;#3465a4&quot;&gt;Alican OZLEM&lt;/font&gt;" style="rounded=1;whiteSpace=wrap;html=1;fontSize=8;glass=0;strokeWidth=1;shadow=0;" parent="WIyWlLk6GJQsqaUBKTNV-1" vertex="1">
          <mxGeometry x="640" y="220" width="80" height="50" as="geometry" />
        </mxCell>
        <mxCell id="0sbduJu9M4anClZtrmmK-23" value="" style="endArrow=none;html=1;rounded=0;" parent="WIyWlLk6GJQsqaUBKTNV-1" edge="1">
          <mxGeometry width="50" height="50" relative="1" as="geometry">
            <mxPoint x="540" y="200" as="sourcePoint" />
            <mxPoint x="420" y="130" as="targetPoint" />
          </mxGeometry>
        </mxCell>
        <mxCell id="0sbduJu9M4anClZtrmmK-24" value="" style="endArrow=none;html=1;rounded=0;" parent="WIyWlLk6GJQsqaUBKTNV-1" edge="1">
          <mxGeometry width="50" height="50" relative="1" as="geometry">
            <mxPoint x="680" y="200" as="sourcePoint" />
            <mxPoint x="420" y="130" as="targetPoint" />
          </mxGeometry>
        </mxCell>
        <mxCell id="zVb7Dnw4wJOhv7-xwH7R-3" value="" style="rounded=0;whiteSpace=wrap;html=1;strokeWidth=0;fillColor=#f8cecc;gradientColor=#ea6b66;strokeColor=#b85450;" parent="WIyWlLk6GJQsqaUBKTNV-1" vertex="1">
          <mxGeometry x="350" y="35" width="60" height="70" as="geometry" />
        </mxCell>
        <mxCell id="0sbduJu9M4anClZtrmmK-0" value="" style="shape=actor;whiteSpace=wrap;html=1;fillColor=#f8cecc;gradientColor=#ea6b66;strokeColor=#000000;" parent="WIyWlLk6GJQsqaUBKTNV-1" vertex="1">
          <mxGeometry x="360" y="40" width="40" height="60" as="geometry" />
        </mxCell>
        <mxCell id="zVb7Dnw4wJOhv7-xwH7R-8" value="" style="rounded=0;whiteSpace=wrap;html=1;strokeWidth=0;fillColor=#dae8fc;gradientColor=#7ea6e0;strokeColor=#6c8ebf;" parent="WIyWlLk6GJQsqaUBKTNV-1" vertex="1">
          <mxGeometry x="430" y="35" width="60" height="70" as="geometry" />
        </mxCell>
        <mxCell id="0sbduJu9M4anClZtrmmK-1" value="" style="shape=actor;whiteSpace=wrap;html=1;fillColor=#dae8fc;gradientColor=#7ea6e0;strokeColor=#000000;" parent="WIyWlLk6GJQsqaUBKTNV-1" vertex="1">
          <mxGeometry x="440" y="40" width="40" height="60" as="geometry" />
        </mxCell>
        <mxCell id="0sbduJu9M4anClZtrmmK-28" value="" style="endArrow=none;html=1;rounded=0;" parent="WIyWlLk6GJQsqaUBKTNV-1" edge="1">
          <mxGeometry width="50" height="50" relative="1" as="geometry">
            <mxPoint x="480" y="40" as="sourcePoint" />
            <mxPoint x="440" y="100" as="targetPoint" />
          </mxGeometry>
        </mxCell>
        <mxCell id="0sbduJu9M4anClZtrmmK-27" value="" style="endArrow=none;html=1;rounded=0;" parent="WIyWlLk6GJQsqaUBKTNV-1" edge="1">
          <mxGeometry width="50" height="50" relative="1" as="geometry">
            <mxPoint x="440" y="40" as="sourcePoint" />
            <mxPoint x="480" y="100" as="targetPoint" />
          </mxGeometry>
        </mxCell>
        <mxCell id="x70Q6F3kddyU1qWuWK17-0" value="" style="endArrow=classic;html=1;rounded=0;exitX=0.5;exitY=1;exitDx=0;exitDy=0;" edge="1" parent="WIyWlLk6GJQsqaUBKTNV-1" source="0sbduJu9M4anClZtrmmK-12">
          <mxGeometry width="50" height="50" relative="1" as="geometry">
            <mxPoint x="120" y="370" as="sourcePoint" />
            <mxPoint x="160" y="320" as="targetPoint" />
          </mxGeometry>
        </mxCell>
        <mxCell id="x70Q6F3kddyU1qWuWK17-1" value="" style="endArrow=classic;html=1;rounded=0;exitX=0.5;exitY=1;exitDx=0;exitDy=0;" edge="1" parent="WIyWlLk6GJQsqaUBKTNV-1">
          <mxGeometry width="50" height="50" relative="1" as="geometry">
            <mxPoint x="299.76" y="270" as="sourcePoint" />
            <mxPoint x="299.76" y="320" as="targetPoint" />
          </mxGeometry>
        </mxCell>
        <mxCell id="x70Q6F3kddyU1qWuWK17-2" value="" style="endArrow=classic;html=1;rounded=0;exitX=0.5;exitY=1;exitDx=0;exitDy=0;" edge="1" parent="WIyWlLk6GJQsqaUBKTNV-1">
          <mxGeometry width="50" height="50" relative="1" as="geometry">
            <mxPoint x="419.76" y="270" as="sourcePoint" />
            <mxPoint x="419.76" y="320" as="targetPoint" />
          </mxGeometry>
        </mxCell>
        <mxCell id="x70Q6F3kddyU1qWuWK17-3" value="" style="endArrow=classic;html=1;rounded=0;exitX=0.5;exitY=1;exitDx=0;exitDy=0;" edge="1" parent="WIyWlLk6GJQsqaUBKTNV-1">
          <mxGeometry width="50" height="50" relative="1" as="geometry">
            <mxPoint x="539.76" y="270" as="sourcePoint" />
            <mxPoint x="539.76" y="320" as="targetPoint" />
          </mxGeometry>
        </mxCell>
        <mxCell id="x70Q6F3kddyU1qWuWK17-4" value="" style="endArrow=classic;html=1;rounded=0;exitX=0.5;exitY=1;exitDx=0;exitDy=0;" edge="1" parent="WIyWlLk6GJQsqaUBKTNV-1">
          <mxGeometry width="50" height="50" relative="1" as="geometry">
            <mxPoint x="679.76" y="270" as="sourcePoint" />
            <mxPoint x="679.76" y="320" as="targetPoint" />
          </mxGeometry>
        </mxCell>
        <mxCell id="x70Q6F3kddyU1qWuWK17-5" value="Sevilcan" style="rounded=1;whiteSpace=wrap;html=1;fontSize=8;glass=0;strokeWidth=1;shadow=0;" vertex="1" parent="WIyWlLk6GJQsqaUBKTNV-1">
          <mxGeometry x="120" y="320" width="80" height="50" as="geometry" />
        </mxCell>
        <mxCell id="x70Q6F3kddyU1qWuWK17-6" value="Suna Güney Gölcan" style="rounded=1;whiteSpace=wrap;html=1;fontSize=8;glass=0;strokeWidth=1;shadow=0;" vertex="1" parent="WIyWlLk6GJQsqaUBKTNV-1">
          <mxGeometry x="260" y="320" width="80" height="50" as="geometry" />
        </mxCell>
        <mxCell id="x70Q6F3kddyU1qWuWK17-7" value="Cem Ceren Selen" style="rounded=1;whiteSpace=wrap;html=1;fontSize=8;glass=0;strokeWidth=1;shadow=0;" vertex="1" parent="WIyWlLk6GJQsqaUBKTNV-1">
          <mxGeometry x="380" y="320" width="80" height="50" as="geometry" />
        </mxCell>
        <mxCell id="x70Q6F3kddyU1qWuWK17-8" value="Ayaz" style="rounded=1;whiteSpace=wrap;html=1;fontSize=8;glass=0;strokeWidth=1;shadow=0;" vertex="1" parent="WIyWlLk6GJQsqaUBKTNV-1">
          <mxGeometry x="500" y="320" width="80" height="50" as="geometry" />
        </mxCell>
        <mxCell id="x70Q6F3kddyU1qWuWK17-9" value="&lt;div&gt;Un enfant prénom ignoré&lt;/div&gt;&lt;div&gt;&lt;br&gt;&lt;/div&gt;" style="rounded=1;whiteSpace=wrap;html=1;fontSize=8;glass=0;strokeWidth=1;shadow=0;" vertex="1" parent="WIyWlLk6GJQsqaUBKTNV-1">
          <mxGeometry x="640" y="320" width="80" height="50" as="geometry" />
        </mxCell>
        <mxCell id="x70Q6F3kddyU1qWuWK17-10" value="" style="shape=umlActor;verticalLabelPosition=bottom;verticalAlign=top;html=1;outlineConnect=0;" vertex="1" parent="WIyWlLk6GJQsqaUBKTNV-1">
          <mxGeometry x="155" y="350" width="10" height="20" as="geometry" />
        </mxCell>
        <mxCell id="x70Q6F3kddyU1qWuWK17-11" value="" style="shape=umlActor;verticalLabelPosition=bottom;verticalAlign=top;html=1;outlineConnect=0;" vertex="1" parent="WIyWlLk6GJQsqaUBKTNV-1">
          <mxGeometry x="270" y="350" width="10" height="20" as="geometry" />
        </mxCell>
        <mxCell id="x70Q6F3kddyU1qWuWK17-12" value="" style="shape=umlActor;verticalLabelPosition=bottom;verticalAlign=top;html=1;outlineConnect=0;" vertex="1" parent="WIyWlLk6GJQsqaUBKTNV-1">
          <mxGeometry x="295" y="350" width="10" height="20" as="geometry" />
        </mxCell>
        <mxCell id="x70Q6F3kddyU1qWuWK17-13" value="" style="shape=umlActor;verticalLabelPosition=bottom;verticalAlign=top;html=1;outlineConnect=0;" vertex="1" parent="WIyWlLk6GJQsqaUBKTNV-1">
          <mxGeometry x="320" y="350" width="10" height="20" as="geometry" />
        </mxCell>
        <mxCell id="x70Q6F3kddyU1qWuWK17-14" value="" style="shape=umlActor;verticalLabelPosition=bottom;verticalAlign=top;html=1;outlineConnect=0;" vertex="1" parent="WIyWlLk6GJQsqaUBKTNV-1">
          <mxGeometry x="535" y="350" width="10" height="20" as="geometry" />
        </mxCell>
        <mxCell id="x70Q6F3kddyU1qWuWK17-15" value="" style="shape=umlActor;verticalLabelPosition=bottom;verticalAlign=top;html=1;outlineConnect=0;" vertex="1" parent="WIyWlLk6GJQsqaUBKTNV-1">
          <mxGeometry x="390" y="350" width="10" height="20" as="geometry" />
        </mxCell>
        <mxCell id="x70Q6F3kddyU1qWuWK17-16" value="" style="shape=umlActor;verticalLabelPosition=bottom;verticalAlign=top;html=1;outlineConnect=0;" vertex="1" parent="WIyWlLk6GJQsqaUBKTNV-1">
          <mxGeometry x="414" y="350" width="10" height="20" as="geometry" />
        </mxCell>
        <mxCell id="x70Q6F3kddyU1qWuWK17-17" value="" style="shape=umlActor;verticalLabelPosition=bottom;verticalAlign=top;html=1;outlineConnect=0;" vertex="1" parent="WIyWlLk6GJQsqaUBKTNV-1">
          <mxGeometry x="440" y="350" width="10" height="20" as="geometry" />
        </mxCell>
        <mxCell id="x70Q6F3kddyU1qWuWK17-18" value="" style="shape=umlActor;verticalLabelPosition=bottom;verticalAlign=top;html=1;outlineConnect=0;" vertex="1" parent="WIyWlLk6GJQsqaUBKTNV-1">
          <mxGeometry x="675" y="350" width="10" height="20" as="geometry" />
        </mxCell>
      </root>
    </mxGraphModel>
  </diagram>
</mxfile>
